<svg xmlns="http://www.w3.org/2000/svg" xmlns:xlink="http://www.w3.org/1999/xlink" version="1.1" x="0px" y="0px" viewBox="0 0 100 125" enable-background="new 0 0 100 100" xml:space="preserve"><path fill="none" stroke="#000000" stroke-width="2" stroke-linecap="round" stroke-linejoin="round" stroke-miterlimit="10" d="  M39.85,32.933c-0.804-1.684-0.918-3.828-0.261-5.522c1.098-2.831,4.282-4.237,7.114-3.139c2.831,1.098,4.237,4.282,3.139,7.114  c-1.016,2.621-4.121,4.795-6.823,4.232"/><path fill="none" stroke="#000000" stroke-width="2" stroke-linecap="round" stroke-linejoin="round" stroke-miterlimit="10" d="  M28.299,26.679c-1.256-2.764-4.516-3.987-7.28-2.73c-2.764,1.256-3.987,4.516-2.73,7.28c0.544,1.196,1.537,2.268,2.713,2.999"/><path fill="none" stroke="#000000" stroke-width="2" stroke-linecap="round" stroke-linejoin="round" stroke-miterlimit="10" d="  M23.755,47.058c0,0.457-0.849,1.149-1.896,1.149c-1.047,0-1.896-0.692-1.896-1.149c0-0.457,0.849-0.828,1.896-0.828  C22.906,46.231,23.755,46.601,23.755,47.058z"/><ellipse fill="none" stroke="#000000" stroke-width="2" stroke-linecap="round" stroke-linejoin="round" stroke-miterlimit="10" cx="29.817" cy="42.457" rx="0.208" ry="0.667"/><path fill="none" stroke="#000000" stroke-width="2" stroke-linecap="round" stroke-linejoin="round" stroke-miterlimit="10" d="  M49.526,32.687c0,0,6.625,0.375,12.75,5.625c0,0,11.5-1,17.5,3.5s11.75,20.125-1,36.125H67.901c0,0,0.25-6.25,6.25-6.125  c0,0-6.375-3.375-5.875-9.75"/><path fill="none" stroke="#000000" stroke-width="2" stroke-linecap="round" stroke-linejoin="round" stroke-miterlimit="10" d="  M38.151,53.937c-12.125,4.125-17.625,0.75-20.375-1.5s-4.5-6.875-1.5-8.375s4.25-5.625,4.25-5.625  c1.125-9.125,4.5-11.5,13.75-12.042c2.001-0.117,3.85,0.111,5.519,0.54"/><path fill="none" stroke="#000000" stroke-width="2" stroke-linecap="round" stroke-linejoin="round" stroke-miterlimit="10" d="  M58.026,67.687c0,0,5.921,1.351,11.273-0.762"/><path fill="none" stroke="#000000" stroke-width="2" stroke-linecap="round" stroke-linejoin="round" stroke-miterlimit="10" d="  M63.027,68.102c0,0-0.353,3.21,0.636,3.835c0,0-4.886,1.5-5.136,6h9.375"/><path fill="none" stroke="#000000" stroke-width="2" stroke-linecap="round" stroke-linejoin="round" stroke-miterlimit="10" d="  M59.086,61.113c0,0-2.423,16.27-8.454,16.819l-6.66,0.054c0,0,0.327-5.878,4.327-5.91c0,0-3.085-10.475-7.594-11.564"/><path fill="none" stroke="#000000" stroke-width="2" stroke-linecap="round" stroke-linejoin="round" stroke-miterlimit="10" d="  M44.661,63.972c0,0,0.615,8.687-5.01,14.014l-11.125-0.049c0,0-0.375-6.416,6-6.958c0,0,1.775-14.775-1.425-15.658"/><path fill="none" stroke="#000000" stroke-width="2" stroke-linecap="round" stroke-linejoin="round" stroke-miterlimit="10" d="  M82.77,45.094c0,0,4.673,1.802,6.589-0.948c0,0-0.319,5.88-4.118,6.148"/><text x="0" y="115" fill="#000000" font-size="5px" font-weight="bold" font-family="'Helvetica Neue', Helvetica, Arial-Unicode, Arial, Sans-serif">Created by Nook Fulloption</text><text x="0" y="120" fill="#000000" font-size="5px" font-weight="bold" font-family="'Helvetica Neue', Helvetica, Arial-Unicode, Arial, Sans-serif">from the Noun Project</text></svg>