<svg xmlns="http://www.w3.org/2000/svg" xmlns:xlink="http://www.w3.org/1999/xlink" version="1.1" x="0px" y="0px" viewBox="0 0 100 125" enable-background="new 0 0 100 100" xml:space="preserve"><path fill="none" stroke="#000000" stroke-linecap="round" stroke-linejoin="round" stroke-miterlimit="10" d="M46.568,51.754  c0,0,3.528,0,4.403,2.5"/><path fill="none" stroke="#000000" stroke-linecap="round" stroke-linejoin="round" stroke-miterlimit="10" d="M58.789,51.754  c0,0-3.528,0-4.403,2.5"/><circle fill="none" stroke="#000000" stroke-width="2" stroke-linecap="round" stroke-linejoin="round" stroke-miterlimit="10" cx="45.546" cy="40.585" r="0.75"/><circle fill="none" stroke="#000000" stroke-width="2" stroke-linecap="round" stroke-linejoin="round" stroke-miterlimit="10" cx="58.937" cy="40.585" r="0.75"/><path fill="none" stroke="#000000" stroke-width="2" stroke-linecap="round" stroke-linejoin="round" stroke-miterlimit="10" d="  M39.114,22.836c-7.75,3.505-8.805,13.939-8.805,13.939c8.171-0.435,11.327-5.001,12.514-7.911"/><path fill="none" stroke="#000000" stroke-width="2" stroke-linecap="round" stroke-linejoin="round" stroke-miterlimit="10" d="  M38.179,34.467c0,0-7.758,24.724,11.403,23.545"/><path fill="none" stroke="#000000" stroke-width="2" stroke-linecap="round" stroke-linejoin="round" stroke-miterlimit="10" d="  M61.162,28.637c1.172,2.89,4.344,7.562,12.648,7.921c0,0-1.13-10.164-8.654-13.719"/><path fill="none" stroke="#000000" stroke-width="2" stroke-linecap="round" stroke-linejoin="round" stroke-miterlimit="10" d="  M65.918,34.329c0,0,8.003,24.646-11.169,23.658"/><path fill="none" stroke="#000000" stroke-width="2" stroke-linecap="round" stroke-linejoin="round" stroke-miterlimit="10" d="  M54.361,80.75l0.025,5.114l4.937-0.025c0,0,3.833-2.282,6.08-7.612"/><path fill="none" stroke="#000000" stroke-width="2" stroke-linecap="round" stroke-linejoin="round" stroke-miterlimit="10" d="  M51.638,80.75l-0.025,5.114l-4.937-0.025c0,0-3.418-2.035-5.691-6.751"/><path fill="none" stroke="#000000" stroke-width="2" stroke-linecap="round" stroke-linejoin="round" stroke-miterlimit="10" d="  M58.703,18.151c-0.689,0.113-1.322,0.361-1.882,0.706c-1.585-1.954-4.141-3.031-6.802-2.594c-1.758,0.288-3.26,1.188-4.333,2.444  c-0.692-0.194-1.431-0.257-2.187-0.133c-2.77,0.454-4.648,3.068-4.194,5.839c0.454,2.77,3.068,4.648,5.839,4.194  c0.273-0.045,0.53-0.126,0.784-0.211c1.597,1.685,3.973,2.574,6.436,2.17c1.915-0.314,3.526-1.356,4.609-2.792  c1,0.573,2.185,0.84,3.411,0.638c2.834-0.465,4.754-3.138,4.29-5.972C64.21,19.607,61.536,17.687,58.703,18.151z"/><path fill="none" stroke="#000000" stroke-width="1.9553" stroke-linecap="round" stroke-linejoin="round" stroke-miterlimit="10" d="  M36.722,42.375c-3.954,1.455-6.774,5.255-6.774,9.713c0,2.266,0.737,4.354,1.972,6.059c-2.468,1.725-4.086,4.583-4.086,7.822  c0,4.946,3.763,9.013,8.583,9.494c1.012,1.969,3.059,3.318,5.425,3.318c1.183,0,2.284-0.342,3.22-0.926  c1.928,1.585,4.437,2.551,7.188,2.551c2.723,0,5.209-0.945,7.13-2.501c0.917,0.552,1.988,0.876,3.137,0.876  c2.362,0,4.406-1.345,5.42-3.309c4.906-0.396,8.767-4.495,8.767-9.503c0-3.24-1.618-6.097-4.086-7.822  c1.235-1.704,1.972-3.793,1.972-6.059c0-4.548-2.934-8.411-7.013-9.798"/><text x="0" y="115" fill="#000000" font-size="5px" font-weight="bold" font-family="'Helvetica Neue', Helvetica, Arial-Unicode, Arial, Sans-serif">Created by Nook Fulloption</text><text x="0" y="120" fill="#000000" font-size="5px" font-weight="bold" font-family="'Helvetica Neue', Helvetica, Arial-Unicode, Arial, Sans-serif">from the Noun Project</text></svg>